# xmcd CD database file
#
# Track frame offsets:
#	225
#	13431
#	30430
#	47671
#	61804
#	75679
#	92723
#	106139
#	123964
#
# Disc length: 1876 seconds
#
# Revision: 0
# Processed by: cddbd v1.5.2PL0 Copyright (c) Steve Scherf et al.
# Submitted via: CDex 1.70beta2
#
DISCID=68075109
DTITLE=UC - January 2003 - Cty - Universal Country - January 2003
DYEAR=2003
DGENRE=Country
TTITLE0=Shania Twain - Up!
TTITLE1=Jessica Andrews - There's More To Me Than You
TTITLE2=Regie Hamm - Babies
TTITLE3=Rascal Flatts - Love You Out loud
TTITLE4=Kevin Denney - It'll Go Away
TTITLE5=Toby Keith - Back You Baby 
TTITLE6=George strait - She'll Leave You With A Smile
TTITLE7=Willie Nelson wt. Jon Bon Jovie and Richie Sambora - Always On My Mind
TTITLE8=Arron Tippin wt. Thea Tippin - Love Like There's No tomorrow
EXTD=YEAR: 2003
EXTT0=
EXTT1=
EXTT2=
EXTT3=
EXTT4=
EXTT5=
EXTT6=
EXTT7=
EXTT8=
PLAYORDER=
